<?xml version="1.0" encoding="UTF-8"?>
<svg id="Capa_2" data-name="Capa 2" xmlns="http://www.w3.org/2000/svg" viewBox="0 0 122.26 187.3">
  <defs>
    <style>
      .cls-1 {
        fill: #fff;
      }
    </style>
  </defs>
  <g id="Capa_1-2" data-name="Capa 1">
    <g>
      <path class="cls-1" d="M79.87,.34c-.32,.44-.65,.87-.97,1.31,1.17,1.07,2.22,2.9,3.53,3.1,13.12,2.1,14.89,3.81,16.44,16.95,.25,2.14,.39,4.31,.4,6.47,.08,27.33,.44,54.66,.05,81.98-.18,12.61-.91,25.37-3.18,37.73-1.55,8.43-4.97,17.11-9.72,24.23-8.05,12.07-24.16,10.6-30.18-2.47-3.12-6.77-5.39-14.6-5.49-21.98-.53-42.97-.42-85.95-.24-128.92,.04-10.84,2.52-12.84,13.3-13.92,1.42-.14,3.74-1.33,3.89-2.31,.52-3.33-2.36-2.39-4.12-2.4C47.42,.06,31.26,.08,15.09,.08c-4.97,0-9.93,0-14.83,0Q-.27,4.37,3.01,5.04c7.89,1.62,9.61,3.53,10.37,11.62,.16,1.66,.23,3.33,.23,4.99,.12,29.66,.19,59.31,.35,88.97,.05,9.82-.11,19.68,.57,29.46,1.72,24.73,18.08,42.98,41.18,46.52,21.79,3.34,35.94-5.16,41.19-26.49,3.04-12.35,4.94-25.24,5.31-37.95,.82-28.3,.31-56.65,.44-84.97,.03-5.49,.24-11,.82-16.45,1.19-11.34,4.07-14.27,15.44-15.75,3.24-.42,4.05-1.58,2.77-4.66h-41.81Z"/>
      <path d="M79.87,.34h41.81c1.29,3.08,.48,4.24-2.77,4.66-11.37,1.47-14.24,4.41-15.44,15.75-.57,5.45-.79,10.96-.82,16.45-.13,28.33,.38,56.67-.44,84.97-.37,12.71-2.27,25.59-5.31,37.95-5.24,21.33-19.4,29.83-41.19,26.49-23.1-3.54-39.46-21.79-41.18-46.52-.68-9.79-.52-19.64-.57-29.46-.16-29.66-.23-59.31-.35-88.97,0-1.66-.08-3.33-.23-4.99-.76-8.09-2.48-10-10.37-11.62Q-.27,4.37,.27,.08c4.89,0,9.86,0,14.83,0,16.16,0,32.33-.02,48.49,.03,1.76,0,4.65-.93,4.12,2.4-.15,.98-2.47,2.16-3.89,2.31-10.77,1.08-13.25,3.08-13.3,13.92-.17,42.97-.29,85.95,.24,128.92,.09,7.38,2.37,15.21,5.49,21.98,6.01,13.07,22.12,14.53,30.18,2.47,4.75-7.12,8.17-15.8,9.72-24.23,2.27-12.36,2.99-25.12,3.18-37.73,.39-27.32,.04-54.65-.05-81.98,0-2.16-.15-4.33-.4-6.47-1.55-13.14-3.33-14.85-16.44-16.95-1.31-.21-2.36-2.03-3.53-3.1,.32-.44,.65-.87,.97-1.31Z"/>
    </g>
  </g>
</svg>