<svg xmlns="http://www.w3.org/2000/svg" viewBox="0 0 1547.13 1431.81"><defs><style>.cls-1{fill:#fff;}</style></defs><g id="Capa_2" data-name="Capa 2"><g id="Ñëîé_1" data-name="Ñëîé 1"><path class="cls-1" d="M1378.77,250.33c23.54,1.28,50.11-6.78,77.28-9.47,20.57-2,31.08,6.59,17,26.81-15.63,22.41-34.38,42.71-49.35,65.52-38.13,58.09-32,81.07,29.82,111.73,26,12.9,53.68,22.39,80,34.65,18.6,8.65,17.82,19.85-.52,27.89-26.63,11.68-55.56,19-80.51,33.41-64.24,37-68.87,39.89-29.33,111.06,12.31,22.15,32.07,40,46.74,61,15.35,22,10.91,31.11-15.7,30-28.9-1.23-57.58-8.52-86.47-9.35-60.81-1.77-80.66,20.37-74.84,81.09,2.44,25.5,7.16,50.78,10.9,76.15,1.46,9.91,7.65,22.32-2.06,28.74-12.4,8.21-21.92-4.7-31.26-11-11.29-7.63-21.59-16.78-31.94-25.72-15.63-13.5-32.21-25.64-51-34.12-37.87-17.06-48-13.81-72.38,21.2-14.84,21.29-23.36,45.49-33.53,69.07-7,16.25-8.19,43.9-29.69,42.6-19.53-1.19-20.7-28.29-28.42-44.81-9.4-20.13-16.58-41.44-27.42-60.72-23.63-42-40.11-46.2-83.52-24.48-31,15.53-53.54,42.54-82.42,60.92-7,4.46-14,12.15-22.93,8.13-12.15-5.48-8.44-17.19-7.2-27,4.91-38.74,16.59-76.41,9-116.78-5.45-29.05-20.52-41.14-48-43.17-27.6-2-54.48,1.53-81.51,7-16.41,3.3-38.67,10.58-48.74-3.39-12.53-17.39,11.2-28.76,19.36-42.44,14.76-24.76,39.31-42.68,47.92-72.15,10.54-36.09,7.58-48.24-23.19-69.72-25.6-17.87-55.75-25.76-84-37.85-12-5.13-31.42-6.43-30.39-22.66.92-14.65,19.92-16.41,31.94-22,24.81-11.49,51.07-20.26,74.78-33.61,40.46-22.78,44.89-42.2,25.93-85C680.39,323,656,302.92,639.36,277.07c-6.05-9.41-19-18.69-9.36-31.23,6.7-8.74,19.17-6.35,29.06-4.12a359.86,359.86,0,0,0,81.48,8.81c59.64-.3,76.6-18,71.49-77.58-2.34-27.21-7.75-54.16-11.67-81.24-1.44-10-5.47-22,4.86-28.13C816,57.2,824,68,831.82,74c19,14.56,37.09,30.35,56.39,44.5,59.35,43.51,94.16,33.62,121.91-34.31,9.06-22.16,17-44.79,26.06-66.93,3.11-7.59,6.47-17,16.63-17.22,10.46-.22,13.45,9.6,16.82,17,13.47,29.56,24.5,60.38,39.77,89,23.75,44.43,43.76,50.82,87,25.3,29.23-17.25,54.89-40.53,82.27-60.95,6.7-5,14-12.55,22.72-7.07,8.15,5.14,6.49,14.9,5.1,23.39-3.86,23.63-8,47.22-11.72,70.86C1283.2,230.3,1301.63,251.7,1378.77,250.33Zm-323.84-84.5c-174.87-20.38-334.59,163-334.46,326.38.14,177.17,169.72,333.83,327.7,334.25,171.1.46,334.23-152.32,336.76-330C1387.36,325.4,1227.82,148.6,1054.93,165.83Z"/><path class="cls-1" d="M796.49,492.67c-8.84-154.44,128.32-262.58,258.23-260.83,122.42,1.66,257.66,88.49,260,263,1.74,132.67-104.57,255.41-259.58,257.32C908.13,754,788.3,632,796.49,492.67Z"/><path class="cls-1" d="M670.76,1203.8c-71.4,62.5-154.1,88.68-248,74.9-75.34-11-137.71-47.09-185.88-106-53.2-65.07-75.19-140.27-65.76-223.71S220.36,798.2,285.8,745.66c-131,18.81-273,136.89-285,316.76-13,194.12,132.5,352.92,315.18,368.1C501.68,1446,633.3,1319.45,670.76,1203.8Z"/></g></g></svg>