<?xml version="1.0" encoding="UTF-8"?>
<svg id="Capa_1" data-name="Capa 1" xmlns="http://www.w3.org/2000/svg" viewBox="0 0 723.06 250.39">
  <path d="M327.79,118.13c4.5-2.94,63.86-2.78,67.47,.22-2.34,.28-4,.48-5.66,.67-6.3,.69-8.32,2.15-8.45,8.25-.31,14.78-.1,29.57-.1,44.82,.75-.55,1.44-.9,1.91-1.44,10.95-12.77,21.88-25.56,32.81-38.35,.11-.13,.25-.24,.32-.38,1.51-3.36,3.01-6.72,4.52-10.07-3.35-1.01-6.69-2.02-10.04-3.01-.61-.18-1.26-.27-3.02-.65,1.43-1.07,2.08-1.97,2.87-2.1,8.78-1.37,33.47-.1,35.29,1.73-.18,.26-.37,.74-.55,.74-11.3-.31-19.09,5.61-25.51,14.14-3.26,4.34-9.11,8.33-9.44,12.8-.31,4.26,4.99,8.96,7.89,13.42,11.23,17.32,22.45,34.65,33.77,51.91,2.57,3.92,5.47,7.54,10.69,8.3,5.12,.74,6.98-.41,7.02-5.51,.11-16.48,.17-32.97,0-49.45-.07-7.21-.35-7.2-7.66-8.25-.73-.11-1.44-.39-2.42-.67,2.86-2.18,29.86-2.92,38.8-1.21,0,4.83-.01,9.78,0,14.73,.04,13.5,0,26.99,.18,40.49,.13,9.4,.27,9.39,9.41,12.21-1.61,.29-3.23,.84-4.84,.84-19.33,.06-38.66,.04-57.99,.04-13.66,0-27.33,.02-40.99-.02-1.66,0-3.32-.31-4.97-.47-.01-.54-.03-1.08-.04-1.62,2.46-.25,4.92-.5,7.38-.77,4.3-.47,5.28-2.87,3.78-6.62-.43-1.08-.96-2.13-1.6-3.1-7.83-11.98-15.68-23.94-24.38-37.2-1.5,3.1-3.4,5.24-3.46,7.44-.26,9.32-.26,18.66,.18,27.97,.48,10.14,1.02,10.42,10.9,11.77,.77,.1,1.51,.39,2.43,.63-2.77,2.58-60.88,2.95-65.94-.05,3.28-.44,5.58-.86,7.9-1.05,5.23-.42,7.7-3.45,8.1-8.42,.19-2.32,.26-4.66,.25-6.99-.03-23.99,0-47.99-.18-71.98-.08-10.88-1.4-12.02-12.4-12.97-1.08-.09-2.15-.37-4.22-.75Z"/>
  <path d="M79.87,39.25h41.81c1.29,3.08,.48,4.24-2.77,4.66-11.37,1.47-14.24,4.41-15.44,15.75-.57,5.45-.79,10.96-.82,16.45-.13,28.33,.38,56.67-.44,84.97-.37,12.71-2.27,25.59-5.31,37.95-5.24,21.33-19.4,29.83-41.19,26.49-23.1-3.54-39.46-21.79-41.18-46.52-.68-9.79-.52-19.64-.57-29.46-.16-29.66-.23-59.31-.35-88.97,0-1.66-.08-3.33-.23-4.99-.76-8.09-2.48-10-10.37-11.62q-3.28-.67-2.74-4.96c4.89,0,9.86,0,14.83,0,16.16,0,32.33-.02,48.49,.03,1.76,0,4.65-.93,4.12,2.4-.15,.98-2.47,2.16-3.89,2.31-10.77,1.08-13.25,3.08-13.3,13.92-.17,42.97-.29,85.95,.24,128.92,.09,7.38,2.37,15.21,5.49,21.98,6.01,13.07,22.12,14.53,30.18,2.47,4.75-7.12,8.17-15.8,9.72-24.23,2.27-12.36,2.99-25.12,3.18-37.73,.39-27.32,.04-54.65-.05-81.98,0-2.16-.15-4.33-.4-6.47-1.55-13.14-3.33-14.85-16.44-16.95-1.31-.21-2.36-2.03-3.53-3.1,.32-.44,.65-.87,.97-1.31Z"/>
  <path d="M211.35,221.67h-38.98c-.22-1.09-.51-2.5-.79-3.9-.37-.04-.79-.22-.94-.09-14.48,12.44-37.55,6.41-45.35-12.21-4.81-11.49-4.97-23.49-.17-35.01,7.47-17.95,24.44-21.1,38.92-17.34,2.54,.66,4.66,2.93,7.11,4.55,0-11.04,.18-22.23-.21-33.4-.05-1.57-2.64-3.73-4.5-4.4-2.87-1.04-6.12-1.03-9.59-2.45,.91-.47,1.82-1.35,2.73-1.35,13.14-.09,26.28-.06,40.03-.06,.12,2.11,.33,4.02,.33,5.92,.02,26.47,.01,52.93,.01,79.4,0,1.33-.08,2.67,.01,3.99,1,13.88-1.75,12.33,11.38,16.34Zm-40.06-34.24h.14c0-7.31,.13-14.62-.04-21.93-.13-5.48-2.87-8.62-7.87-9.32-5.06-.7-7.91,2.25-9.08,6.64-1.19,4.45-2.47,9.09-2.39,13.63,.2,11.89,.58,23.83,1.97,35.62,.7,5.95,4.61,8.08,9.34,7.56,4.89-.53,7.69-3.72,7.87-9.79,.23-7.47,.05-14.94,.05-22.42Z"/>
  <path d="M690.66,199.63c3.71,8.1-.46,17.85-8.49,22.01-10.71,5.55-23.32,2.13-29.21-8.03-7.68,11.05-18.62,11.81-30.2,8.99-8.47-2.07-13.28-9.97-12.77-19.14,.53-9.43,5.39-15.26,14.54-16.89,6.54-1.16,13.18-1.82,19.75-2.83,4.99-.77,7.66-3.36,7.07-8.87-.5-4.62-.24-9.32-.71-13.95-.57-5.65-5.25-8.14-10.47-5.86-3.31,1.45-3.79,3.88-1.32,6.63,7.57,8.44,4.66,17.22-6.55,19.59-1.93,.41-3.96,.52-5.95,.52-5.32,.01-9.96-1.53-12.29-6.79-1.88-4.23,.2-10.6,4.56-14.35,6.17-5.31,13.67-7.5,21.53-8.44,10.09-1.21,19.9-.22,29.21,4.31,6.83,3.32,10.37,8.48,10.29,16.19-.12,10.49-.04,20.99-.02,31.48,0,1.66-.3,3.49,.29,4.94,.84,2.07,2.04,5.07,3.68,5.51,3.55,.96,4.65-2.41,5.33-5.19,.72-2.93,1.07-5.96,1.73-9.85Zm-39.38-15.11l-1.34-1.22c-3.36,2.88-8.79,5.26-9.63,8.75-1.65,6.85-1.2,14.35-.74,21.52,.25,3.91,4.49,5.38,7.46,2.72,2.01-1.8,3.89-4.83,4.05-7.42,.52-8.09,.19-16.23,.19-24.35Z"/>
  <path d="M122.14,106.03c8.27,1.12,7.79-4.05,7.8-8.83,.02-9.5,.03-18.99,0-28.49-.02-5.29,1.31-11.39-6.85-12.58h27.86c.18,1.38,.38,2.96,.67,5.24,6.15-7.99,14.28-7.98,22.53-6.04,8.74,2.06,12.75,7.71,12.82,16.54,.07,9.32,.19,18.65,.33,27.97,.08,5.37,1.14,6.29,7.06,6.33,6.41,.05,7.51-.76,7.55-6.36,.1-11.49-.12-22.99,.1-34.49,.1-5.28-1.6-8.47-8.31-7.86,.36-.45,.72-.9,1.08-1.35h28.83c0,1.5,0,3.24,0,4.98,0,12,.01,23.99,0,35.99,0,4.84-.14,9.73,6.82,10.27h-70.29c6.51-1.56,5.28-6.77,5.3-11.35,.04-9.5,.08-18.99-.02-28.49-.07-6.03-1.97-8.65-5.93-8.79-4.01-.14-7.87,3.61-7.94,8.64-.18,11.32-.18,22.66,.33,33.97,.1,2.13,2.88,4.13,4.4,6.16h-33.14c-.33-.49-.67-.98-1-1.47Z"/>
  <path d="M606.31,221.74h-48.17c.81-1.04,1.03-1.64,1.35-1.7,8.68-1.57,8.76-1.56,8.78-10.38,.06-26.66,.16-53.31,.03-79.97-.05-9.62-.33-9.61-9.72-10.95-.41-.06-.78-.44-1.18-.68,1.96-2.32,27.75-3.27,39.22-1.43v5.72c0,26.83,0,53.65,0,80.48,0,1.17-.02,2.33,0,3.5q.27,11.12,9.69,15.42Z"/>
  <path d="M508.46,117.1c12.76-1.25,25.58-1.03,39.16-1.09v6.15c0,27.48,0,54.97,0,82.45,0,1.66,0,3.33,.12,4.99q.67,9.13,9.23,10.73c-2.09,2.64-43.36,3.05-47.14,.47,.17-.24,.32-.66,.53-.69,8.87-1.36,8.9-1.37,8.92-10.3,.06-25.65,.18-51.3,.14-76.95-.02-11.97-.15-11.97-10.97-15.77Z"/>
  <path d="M663.57,104.81c-3.47,4.43-11.96,5.93-19.67,3.31-10.24-3.48-14.61-11.4-16.04-21.51-2.08-14.69,4.26-27.42,15.98-30.91,7.29-2.17,14.72-2.69,21.41,3.48,0-8.42,.07-16.32-.03-24.23-.04-3.11-1.83-4.86-4.99-5.15-1.89-.18-3.78-.43-5.67-.64,.03-.41,.06-.83,.08-1.24h32.31c0,1.84,0,3.78,0,5.71,0,20.16-.33,40.32,.13,60.47,.27,11.95-1.29,10.08,8.27,12.64-.3,.39-.55,1.03-.81,1.03-8.82,.11-17.64,.22-26.46,.12-.84,0-1.6-1.47-2.52-2.09-.62-.42-1.45-.55-2.18-.81,.43-1.23,1.21-2.46,1.23-3.7,.22-12.75,.58-25.51,.29-38.25-.09-3.97-5.67-6.86-8.65-4.66-2.26,1.67-4.48,4.93-4.65,7.61-.63,10.22-1.15,20.55-.32,30.72,.73,8.96,3.85,10.37,12.28,8.1Z"/>
  <path d="M532.22,104.94c-5.13,6.93-22.01,5.17-28.9-1.55-9.51-9.27-10.92-29.18-2.45-40.2,7.45-9.69,20.95-11.65,31.97-4.63,0-8.09,.27-16.19-.23-24.25-.1-1.6-2.95-3.37-4.89-4.39-1.56-.82-3.66-.63-5.52-.89,.03-.4,.07-.8,.1-1.2h32.08c.08,1.61,.23,3.36,.24,5.11,.02,20.66-.32,41.32,.14,61.97,.25,11.43-1.01,9.21,8.46,13.09-5.42,0-10.87,.38-16.25-.11-4.75-.43-10.43,2.44-14.74-2.94Zm.5-22.53c.08,0,.15,0,.23,0,0-5.81,.06-11.62-.02-17.43-.06-4.04-2.06-6.61-6.19-7.1-3.93-.47-6.01,2.09-6.76,5.32-2.88,12.45-3,25-.14,37.48,.75,3.28,2.88,5.65,6.79,5.27,3.99-.39,5.95-2.8,6.05-6.61,.14-5.64,.04-11.28,.04-16.92Z"/>
  <path d="M285.72,200.03c-.43,1.61-.6,3.36-1.33,4.82-7.48,14.84-23.34,21.54-42.62,18.12-23.88-4.24-36.31-27.63-26.47-49.8,10.63-23.96,49.13-29.34,64.24-8.95,4.36,5.88,6.78,12.42,6.13,20.35h-44.11c-.2,9.73,.88,18.71,6.88,26.19,7.01,8.76,21.56,8.34,28.96-.7,2.64-3.23,4.65-6.97,6.95-10.48,.46,.15,.92,.29,1.37,.44Zm-25.83-18.95c0-4.54,.3-8.51-.09-12.42-.34-3.41-.81-7.1-2.44-9.97-1.16-2.03-4.26-3.76-6.67-4.02-1.89-.2-5.1,1.56-5.91,3.3-3.41,7.3-3.58,15.17-3.19,23.12h18.3Z"/>
  <path d="M626.24,91.75c1.93,8.21-.65,13.36-7.4,16.23-7.7,3.28-15.79,1.1-21.44-5.98-5.35,7.3-12.92,8.12-20.99,6.81-7.27-1.18-11.59-6.95-11.46-14.7,.13-7.54,4.03-12.14,11.49-13.34,4.76-.76,9.57-1.25,14.33-2.01,3.76-.6,5.99-2.5,5.55-6.78-.37-3.63-.21-7.32-.57-10.96-.42-4.26-3.43-5.07-6.91-4.19-2.85,.72-4.73,2.37-1.75,5.21,2.63,2.51,4,5.24,2.61,8.91-1.48,3.91-4.55,5.46-8.43,6.02-6.9,1-11.8-.8-13.36-5-1.67-4.53,1.24-10.29,7.25-13.28,11.58-5.77,23.4-5.8,35.18-.54,5.24,2.34,7.65,6.63,7.62,12.38-.05,7.83-.03,15.66,.02,23.5,.01,1.82,.01,3.71,.48,5.45,.3,1.11,1.5,2.82,2.22,2.78,1.23-.07,3.05-1.04,3.45-2.09,1.04-2.68,1.45-5.6,2.11-8.43Zm-29.99-12.31c-7.69,1.4-9.7,6.32-9.72,12.56,0,2.32-.3,4.83,.45,6.92,.71,1.99,2.6,3.56,3.98,5.31,1.76-1.93,4.82-3.73,5.05-5.83,.68-6.2,.24-12.53,.24-18.96Z"/>
  <path d="M347.13,56h28.26c.13,1.97,.25,3.77,.49,7.39,3.52-7.94,9.37-8.94,15.69-8.5,6.53,.45,11.75,6.28,11.7,12.74-.05,6.09-4.75,11.15-10.83,11.68-8.74,.75-14.16-6.55-10.87-14.7,.55-1.37,1.26-2.68,1.93-4.09-3.95-.25-6.45,1.91-7.16,6.74-.48,3.27-.33,6.64-.35,9.96-.05,6.16-.01,12.32-.01,18.49q0,8.64,7.21,11.71h-36.04c.07-.32,.12-.88,.19-.88,6.43-.09,7.12-4.23,7.02-9.39-.19-9.82-.05-19.65-.06-29.48q0-8.27-7.15-11.68Z"/>
  <path d="M344.58,90.77c-.76,8.03-9.22,16.37-18.74,17.77-5.16,.76-10.73,.74-15.81-.35-13.99-3-21.67-13.45-21.07-27.41,.57-13.07,10.32-23.78,23.56-25.88,14.31-2.27,25.44,2.6,30.26,13.57,1.36,3.1,1.88,6.58,3.05,10.88-6.51,0-12.09,0-17.67,0s-10.89,0-16.23,0c-1.56,9.91,2.33,20.27,8.72,23.26,4.83,2.26,10.09,2.25,14.25-.97,3.63-2.81,6.25-6.92,9.67-10.86Zm-18.77-14.01c-.6-5.5-.68-10.69-1.95-15.57-.5-1.92-3.54-4.15-5.63-4.37-1.59-.17-4.58,2.32-5.05,4.12-1.31,5.02-1.63,10.29-2.39,15.83h15.02Z"/>
  <path d="M412.18,102.51c-1.33,2.71-2.45,4.99-4.23,8.61v-25.62c.27-.13,.53-.25,.8-.38,1.17,2.73,2.27,5.48,3.51,8.17,2.63,5.74,5.97,10.83,12.53,12.68,4.06,1.15,8.34,1.6,10.46-2.9,2.12-4.52-.85-7.58-4.53-9.78-4.28-2.57-8.74-4.83-12.97-7.48-8.04-5.03-10.74-10.68-9.01-18.23,1.49-6.5,7.56-12,15.72-12.55,5.1-.35,10.62,.41,15.44,2.12,6.96,2.47,6.76,3.03,10.15-4.67v24.51c-1.2-2.33-1.73-3.51-2.38-4.61-2.29-3.82-3.99-8.3-7.14-11.21-2.64-2.44-6.89-3.56-10.61-4.21-1.62-.28-4.84,1.76-5.27,3.31-.5,1.85,.65,4.87,2.12,6.36,2.16,2.18,5.24,3.45,7.93,5.09,3.83,2.34,7.82,4.45,11.46,7.05,5.43,3.89,7.93,9.32,6.98,16.05-.95,6.71-5.34,10.54-11.36,12.67-7.35,2.61-14.66,2.71-21.77-1-2.35-1.23-4.72-2.41-7.83-3.99Z"/>
  <path d="M290.75,56.26c-7.64,.87-8.96,7.21-11.1,12.68-4.73,12.08-9.43,24.17-13.94,36.33-.98,2.64-2.27,3.6-5.06,3.48-2.67-.11-4.57-.3-5.72-3.37-4.58-12.31-9.4-24.53-14.28-36.72-2.04-5.1-2.54-11.67-10.2-12.55h35.32c-7.86,2.35-4.36,7.25-2.72,11.67,2.19,5.92,4.43,11.82,7.02,18.72,2.72-6.99,5.17-13.1,7.47-19.27,2.86-7.67,2.75-7.81-4.83-10.97h18.04Z"/>
  <path d="M492.77,107.61h-36.64c1.71-.95,2.31-1.56,2.88-1.55,4.01,.13,5.24-2.24,5.24-5.68,.03-12.14-.11-24.28,.07-36.41,.08-5.45-3.4-6.45-7.59-7.66h29.23c0,4.33,0,8.93,0,13.53,0,9.14,.01,18.29,0,27.43,0,4.83-.47,9.95,7.95,8.65-.38,.56-.76,1.12-1.13,1.68Z"/>
  <path d="M483.83,115.33c8.38,0,14.49,5.86,14.45,13.85-.04,7.82-6.41,13.82-14.62,13.8-7.88-.03-14.11-6.03-14.2-13.69-.09-7.91,6.13-13.95,14.38-13.96Z"/>
  <path d="M474.68,26.69c6.3-.08,11.02,4.18,11.22,10.14,.2,6.05-4.74,11-10.97,11.01-6.11,0-10.89-4.56-10.96-10.47-.08-5.93,4.61-10.59,10.71-10.67Z"/>
  <path d="M223.61,37.03c.04,5.95-4.57,10.64-10.62,10.8-6.21,.16-11.41-4.73-11.35-10.68,.06-5.75,5.01-10.44,11.03-10.46,6.34-.02,10.9,4.29,10.94,10.34Z"/>
</svg>