<svg width="1442" height="559" viewBox="0 0 1442 559" fill="none" xmlns="http://www.w3.org/2000/svg">
<path fill-rule="evenodd" clip-rule="evenodd" d="M34.3 74.7L0 64V320H1.13207L2.28882e-05 558.996L34.0247 553.858C35.3144 553.654 36.649 553.444 38.0268 553.228C74.0708 547.573 139.741 537.27 206.276 501.273C227.392 489.82 248.606 475.806 269.857 461.768C317.216 430.484 364.754 399.081 411.778 395.645C459.773 391.909 511.566 412.944 561.631 433.277C583.57 442.188 605.177 450.963 625.988 457.46C666.965 490.521 744.958 478.543 795.226 470.824C806.169 469.143 815.798 467.664 823.445 466.896C839.989 465.233 864.241 461.813 891.758 457.932C935.394 451.779 987.238 444.467 1029.57 441.172C1097.59 436.194 1166.29 436.519 1234.54 447.543C1296.56 457.102 1358.05 476.125 1394.71 487.466L1394.74 487.473C1398.82 488.737 1402.6 489.906 1406.04 490.956L1440.29 501.818L1441.5 245.821L1440 245.814V0L1406 5.3C1404.72 5.50892 1403.39 5.72361 1402.02 5.94524L1402 5.94823C1365.98 11.7739 1300.36 22.388 1234 58.7C1212.94 70.2528 1191.79 84.3671 1170.61 98.5052C1123.4 130.014 1076.01 161.642 1029 165.3C981.024 169.263 929.132 148.474 878.971 128.378C856.99 119.572 835.341 110.899 814.5 104.5C773.367 71.6341 695.432 83.9808 645.201 91.9386C634.266 93.671 624.644 95.1954 617 96C600.465 97.7406 576.229 101.276 548.73 105.287C505.125 111.647 453.315 119.204 411 122.7C343 128 274.3 128 206 117.3C143.934 108.035 82.3528 89.3033 45.6392 78.1358L45.6373 78.1352C41.5366 76.8878 37.7462 75.7349 34.3 74.7Z" fill="#3175BA"/>
</svg>
