<svg width="1440" height="320" viewBox="0 0 1440 320" fill="none" xmlns="http://www.w3.org/2000/svg">
<path d="M0 64L34.3 74.7C68.6 85 137 107 206 117.3C274.3 128 343 128 411 122.7C480 117 574.245 100.501 617 96C659.755 91.4993 764.412 64.4792 814.5 104.5C882.9 125.5 960 171 1029 165.3C1097.1 160 1166 96 1234 58.7C1302.9 21 1371 11 1406 5.3L1440 0V320H1405.7C1371.4 320 1303 320 1234 320C1165.7 320 1097 320 1029 320C960 320 891 320 823 320C754.3 320 686 320 617 320C548.6 320 480 320 411 320C342.9 320 274 320 206 320C137.1 320 69 320 34 320H0V64Z" fill="#F7BE2F"/>
</svg>
