<svg width="1440" height="230" viewBox="0 0 1440 230" fill="none" xmlns="http://www.w3.org/2000/svg">
<path d="M0 46L34.3 53.6906C68.6 61.0937 137 76.9063 206 84.3094C274.3 92 343 92 411 88.1906C480 84.0937 574.245 72.2349 617 69C659.755 65.7651 764.412 46.3445 814.5 75.1094C882.9 90.2031 960 122.906 1029 118.809C1097.1 115 1166 69 1234 42.1906C1302.9 15.0938 1371 7.90625 1406 3.80938L1440 0V230H1405.7C1371.4 230 1303 230 1234 230C1165.7 230 1097 230 1029 230C960 230 891 230 823 230C754.3 230 686 230 617 230C548.6 230 480 230 411 230C342.9 230 274 230 206 230C137.1 230 69 230 34 230H0V46Z" fill="#004172"/>
</svg>
